
<svg width="37px" height="53px" viewBox="0 0 37 53" version="1.1" xmlns="http://www.w3.org/2000/svg" xmlns:xlink="http://www.w3.org/1999/xlink">
    <desc>Created with Sketch.</desc>
    <defs>
        <path d="M18.5,0 C8.29904491,0 0,8.61064721 0,19.1945117 C0,32.3294183 16.5556877,51.6122289 17.2605608,52.4266908 C17.9226326,53.1917758 19.0785646,53.1904301 19.7394392,52.4266908 C20.4443123,51.6122289 37,32.3294183 37,19.1945117 C36.9998005,8.61064721 28.7008553,0 18.5,0 Z M18.5,28.8518066 C13.367646,28.8518066 9.19228322,24.5195689 9.19228322,19.1945117 C9.19228322,13.8694544 13.3677458,9.53732022 18.5,9.53732022 C23.6322542,9.53732022 27.807617,13.8695579 27.807617,19.1946152 C27.807617,24.5196725 23.6322542,28.8518066 18.5,28.8518066 Z" id="path-1"></path>
    </defs>
    <g stroke="none" stroke-width="1" fill="none" fill-rule="evenodd">
        <g transform="translate(-30.000000, -186.000000)">
            <g transform="translate(0.000000, 133.000000)">
                <g transform="translate(30.000000, 33.000000)">
                    <g transform="translate(0.000000, 20.000000)">
                        <g>
                            <g fill-rule="nonzero">
                                <use fill="#FFFFFF" fill-rule="evenodd" xlink:href="#path-1"></use>
                                <path stroke="#D8D8D8" stroke-width="1" d="M18.5,0.5 C8.57940995,0.5 0.5,8.88273446 0.5,19.1945117 C0.5,24.836362 3.59486463,32.0979661 8.78633595,40.1600686 C10.6381551,43.0358537 12.6388012,45.8252847 14.6612231,48.4310958 C15.3888469,49.3686106 16.0745599,50.2242123 16.7023002,50.9855639 C17.1094866,51.4794178 17.4294104,51.8577374 17.6386502,52.0995084 C18.1008679,52.6336435 18.8994108,52.6333478 19.3613664,52.0994891 C19.5705896,51.8577374 19.8905134,51.4794178 20.2976998,50.9855639 C20.9254401,50.2242123 21.6111531,49.3686106 22.3387769,48.4310958 C24.3611988,45.8252847 26.3618449,43.0358537 28.213664,40.1600686 C33.4051354,32.0979661 36.5,24.836362 36.5,19.1945211 C36.4998056,8.88270208 28.4204569,0.5 18.5,0.5 Z M18.5,29.3518066 C13.0873133,29.3518066 8.69228322,24.7916899 8.69228322,19.1945117 C8.69228322,13.5973865 13.0873622,9.03732022 18.5,9.03732022 C23.9126033,9.03732022 28.307617,13.5974537 28.307617,19.1946152 C28.307617,24.7917585 23.9126205,29.3518066 18.5,29.3518066 Z"></path>
                            </g>
                            <rect fill="#FFFFFF" x="6" y="6" width="23" height="27"></rect>
                            <g transform="translate(8.000000, 8.000000)" fill="#322E2E">
                                <g>
                                    <path d="M17.8953099,20.9888391 L2.10491227,20.9888391 C0.944232712,21.1118465 0,20.1997021 0,19.0785738 L0,18.5324464 C0,18.3691878 0.137001522,18.2368421 0.306003399,18.2368421 C0.475005277,18.2368421 0.612006799,18.3691878 0.612006799,18.5324464 L0.612006799,19.0785738 C0.612006799,19.8737216 1.28168091,20.5206378 2.10480116,20.5206378 L17.8951988,20.5206378 C18.7183191,20.5206378 19.3879932,19.8737216 19.3879932,19.0785738 L19.3879932,18.5324464 C19.3879932,18.3691878 19.5249947,18.2368421 19.6939966,18.2368421 C19.8629984,18.2368421 20,18.3691878 20,18.5324464 L20,19.0785738 C20.0002222,20.1998095 19.0559895,21.1119539 17.8953099,20.9888391 Z" id="Shape" fill-rule="nonzero"></path>
                                    <path d="M19.6938793,8.56578947 C19.6207677,8.56578947 19.547545,8.54017911 19.488989,8.48819228 L11.1427081,1.07300837 C10.8352615,0.770171348 10.4268142,0.603266231 9.99247781,0.602828447 C9.99203336,0.602828447 9.9914778,0.602828447 9.99103335,0.602828447 C9.55736364,0.602828447 9.14991633,0.768967442 8.84358084,1.07071 L8.83213632,1.08143571 L0.510966707,8.4725415 C0.385410269,8.58395751 0.191853352,8.57421681 0.078741446,8.45054286 C-0.0343704603,8.3268689 -0.0244815019,8.13621401 0.101074936,8.024798 L8.41657784,0.638836174 C8.83791414,0.226772067 9.39669584,0 9.99103335,0 C9.99170003,0 9.9923667,0 9.99292226,0 C10.5879264,0.000437783912 11.1474859,0.228085418 11.5697111,0.64113454 L19.8988808,8.04055822 C20.0244372,8.15208368 20.0344373,8.34262912 19.9212143,8.46630308 C19.8608805,8.532299 19.7775466,8.56578947 19.6938793,8.56578947 Z" id="Shape" fill-rule="nonzero"></path>
                                    <g id="Group" transform="translate(5.633803, 15.197368)" fill-rule="nonzero">
                                        <path d="M2.61052735,0.518210526 C2.534019,0.518210526 2.46330167,0.531473684 2.40026859,0.557763158 C2.3375696,0.583815789 2.28344579,0.621473684 2.23945627,0.669552632 C2.19546675,0.717631579 2.16116607,0.776605263 2.1375565,0.844697368 C2.11372421,0.913263158 2.10169669,0.99 2.10169669,1.07277632 C2.10169669,1.15496053 2.11361284,1.23086842 2.13711104,1.29825 C2.16038651,1.36539474 2.19502129,1.42425 2.2400131,1.47339474 C2.28489355,1.52253947 2.33890599,1.56090789 2.40049132,1.58731579 C2.46218801,1.61384211 2.53290534,1.62722368 2.61052735,1.62722368 C2.68892892,1.62722368 2.76031444,1.61396053 2.82267933,1.58767105 C2.88482149,1.56161842 2.9389453,1.52360526 2.98349165,1.47481579 C3.02814936,1.42602632 3.06278415,1.36669737 3.08639371,1.29860526 C3.11022601,1.23003947 3.12225352,1.15401316 3.12225352,1.07253947 C3.12225352,0.990473684 3.11033737,0.914328947 3.08683917,0.846473684 C3.06356371,0.779092105 3.02904029,0.720118421 2.98438257,0.671328947 C2.93983623,0.622539474 2.88537832,0.584407895 2.82256797,0.558 C2.75964625,0.531710526 2.68826073,0.518210526 2.61052735,0.518210526 Z M2.61052735,1.45882895 C2.55328529,1.45882895 2.50272519,1.44272368 2.46018343,1.41086842 C2.4178644,1.37925 2.38501146,1.33342105 2.36251556,1.27456579 C2.34046512,1.21701316 2.32932853,1.14903947 2.32932853,1.07265789 C2.32932853,0.995684211 2.34068785,0.927 2.36296102,0.868736842 C2.38579103,0.809052632 2.41908942,0.763105263 2.46185391,0.732197368 C2.50472977,0.701171053 2.55473305,0.685539474 2.61052735,0.685539474 C2.69717,0.685539474 2.76710776,0.720710526 2.81867016,0.789986842 C2.86900753,0.857842105 2.89462168,0.952934211 2.89462168,1.07265789 C2.89462168,1.19096053 2.8691189,1.28557895 2.81878153,1.35378947 C2.76721913,1.42353947 2.69717,1.45882895 2.61052735,1.45882895 Z" id="Shape"></path>
                                        <path d="M3.75124795,0.543078947 C3.64923682,0.543078947 3.63743203,0.589026316 3.63743203,0.623723684 C3.63743203,0.647763158 3.64567311,0.666828947 3.66248935,0.68175 C3.68019653,0.697381579 3.7067016,0.705434211 3.74155912,0.705434211 L3.83454962,0.705434211 L3.83454962,1.47635526 C3.83454962,1.52668421 3.84546348,1.56505263 3.86695709,1.59027632 C3.88822797,1.61526316 3.91428759,1.62746053 3.94636096,1.62746053 C3.98055028,1.62746053 4.00750082,1.61526316 4.02866033,1.59027632 C4.05026531,1.56505263 4.06117917,1.52668421 4.06117917,1.47635526 L4.06117917,0.705434211 L4.14626269,0.705434211 C4.19080904,0.705434211 4.22566656,0.69975 4.25005568,0.6885 C4.2571831,0.685184211 4.27867671,0.675355263 4.27867671,0.619697368 C4.27867671,0.60075 4.27867671,0.543197368 4.14637406,0.543197368 L4.06129053,0.543197368 L4.06129053,0.454736842 C4.06129053,0.394934211 4.06864068,0.349697368 4.08367507,0.316421053 C4.10082542,0.278644737 4.13802162,0.259460526 4.19415002,0.259460526 C4.21263675,0.259460526 4.23524402,0.261592105 4.26152637,0.265973684 C4.29170652,0.270947368 4.30573862,0.272013158 4.31208647,0.272013158 C4.32856862,0.272013158 4.34271209,0.265026316 4.3550737,0.250697368 C4.36788077,0.235894737 4.37411726,0.218605263 4.37411726,0.197644737 C4.37411726,0.131092105 4.30239764,0.0973421053 4.16085162,0.0973421053 C4.07632493,0.0973421053 4.00928267,0.108828947 3.96161808,0.131328947 C3.91551261,0.153118421 3.88377334,0.186868421 3.86450704,0.234473684 C3.84457255,0.283736842 3.83443826,0.351947368 3.83443826,0.437210526 L3.83443826,0.543315789 L3.75124795,0.543315789 L3.75124795,0.543078947 Z" id="Shape"></path>
                                        <path d="M4.98518179,0.543078947 C4.88317065,0.543078947 4.87136587,0.589026316 4.87136587,0.623723684 C4.87136587,0.647763158 4.87960694,0.666828947 4.89642319,0.68175 C4.91413036,0.697381579 4.94063544,0.705434211 4.97549296,0.705434211 L5.06848346,0.705434211 L5.06848346,1.47635526 C5.06848346,1.52668421 5.07939731,1.56505263 5.10089093,1.59027632 C5.12216181,1.61526316 5.14822142,1.62746053 5.18029479,1.62746053 C5.21448411,1.62746053 5.24143465,1.61526316 5.26259417,1.59027632 C5.28419915,1.56505263 5.295113,1.52668421 5.295113,1.47635526 L5.295113,0.705434211 L5.38019653,0.705434211 C5.42474288,0.705434211 5.45960039,0.69975 5.48398952,0.6885 C5.49111693,0.685184211 5.51261055,0.675355263 5.51261055,0.619697368 C5.51261055,0.60075 5.51261055,0.543197368 5.38030789,0.543197368 L5.29522437,0.543197368 L5.29522437,0.454736842 C5.29522437,0.394934211 5.30257452,0.349697368 5.31760891,0.316421053 C5.33475925,0.278644737 5.37195545,0.259460526 5.42808385,0.259460526 C5.44657059,0.259460526 5.46917786,0.261592105 5.4954602,0.265973684 C5.52564035,0.270947368 5.53967245,0.272013158 5.54602031,0.272013158 C5.56250246,0.272013158 5.57664592,0.265026316 5.58900753,0.250697368 C5.60181461,0.235894737 5.60816246,0.218605263 5.60816246,0.197644737 C5.60816246,0.131092105 5.53644284,0.0973421053 5.39489682,0.0973421053 C5.31037013,0.0973421053 5.24332787,0.108828947 5.19566328,0.131328947 C5.14955781,0.153118421 5.11781854,0.186868421 5.09855224,0.234473684 C5.07861775,0.283736842 5.06848346,0.351947368 5.06848346,0.437210526 L5.06848346,0.543315789 L4.98518179,0.543315789 L4.98518179,0.543078947 Z" id="Shape"></path>
                                        <path d="M7.54759908,0.516197368 C7.44046512,0.516197368 7.34725188,0.539881579 7.27074353,0.586539474 C7.19456928,0.632960526 7.13554537,0.699631579 7.09523092,0.784657895 C7.05458238,0.870513158 7.03397969,0.970934211 7.03397969,1.08319737 C7.03397969,1.24827632 7.07874877,1.38126316 7.16695054,1.47872368 C7.25492958,1.57594737 7.37977072,1.62521053 7.53791025,1.62521053 C7.61274812,1.62521053 7.68090403,1.61443421 7.74026204,1.59311842 C7.79939731,1.57192105 7.84895513,1.54373684 7.88748772,1.50927632 C7.92590894,1.47493421 7.95486407,1.43846053 7.97346217,1.40092105 C7.99172617,1.36409211 8.00085817,1.32927632 8.00085817,1.29765789 C8.00085817,1.27290789 7.9919489,1.24993421 7.97357353,1.22743421 C7.95586636,1.20576316 7.93437275,1.19534211 7.90753357,1.19534211 C7.88503767,1.19534211 7.8666623,1.20244737 7.85151654,1.21689474 C7.83447756,1.23323684 7.81810678,1.25644737 7.80296102,1.28593421 C7.77211268,1.34289474 7.73591877,1.38576316 7.69549296,1.41382895 C7.65428759,1.44225 7.60461841,1.45657895 7.54759908,1.45657895 C7.50528005,1.45657895 7.4656338,1.44769737 7.43010809,1.43028947 C7.39413691,1.41276316 7.3631772,1.38659211 7.33800852,1.35260526 C7.31306256,1.31909211 7.29390763,1.27835526 7.28098919,1.23146053 C7.26818212,1.18515789 7.26161153,1.13376316 7.26161153,1.07881579 C7.26161153,0.961105263 7.28733705,0.866605263 7.33800852,0.797802632 C7.38990501,0.727460526 7.45906322,0.691697368 7.54381264,0.691697368 C7.60227972,0.691697368 7.65161481,0.706263158 7.69025876,0.734921053 C7.72756633,0.762631579 7.76364887,0.804315789 7.79739273,0.858789474 C7.81398624,0.883302632 7.829132,0.901539474 7.84227317,0.912315789 C7.85340976,0.921552632 7.86755323,0.926052632 7.8852604,0.926052632 C7.91410416,0.926052632 7.93793646,0.916342105 7.95809368,0.896447368 C7.97780544,0.876907895 7.9873829,0.853815789 7.9873829,0.82575 C7.9873829,0.7965 7.97769407,0.764052632 7.95842778,0.729 C7.93860465,0.693 7.90931543,0.658539474 7.8715624,0.626447368 C7.83347527,0.594236842 7.78614478,0.567473684 7.73101867,0.546868421 C7.67555847,0.526618421 7.61386178,0.516197368 7.54759908,0.516197368 Z" id="Shape"></path>
                                        <path d="M9.04836554,0.516197368 C8.97118899,0.516197368 8.90013757,0.529460526 8.83710449,0.55575 C8.77451687,0.581802632 8.72117262,0.619697368 8.67863085,0.66825 C8.63586636,0.717039474 8.6027907,0.776486842 8.58040616,0.844934211 C8.55779889,0.913855263 8.5463282,0.989881579 8.5463282,1.07088158 C8.5463282,1.24211842 8.59232231,1.37913158 8.68308549,1.47825 C8.77362594,1.57725 8.90314445,1.62746053 9.06785457,1.62746053 C9.14013102,1.62746053 9.20472322,1.61739474 9.25996069,1.5975 C9.3150868,1.57760526 9.361415,1.55238158 9.39760891,1.52253947 C9.43346872,1.49281579 9.46053063,1.46167105 9.47801507,1.42993421 C9.49494268,1.39914474 9.50351785,1.37261842 9.50351785,1.35082895 C9.50351785,1.32785526 9.49739273,1.31103947 9.48491975,1.29919737 C9.47166721,1.28676316 9.45418277,1.28060526 9.43168687,1.28060526 C9.41130691,1.28060526 9.39593842,1.28522368 9.38602686,1.29422368 C9.35339666,1.32690789 9.32622339,1.35343421 9.3052866,1.37285526 C9.28379299,1.39286842 9.25996069,1.41181579 9.23468064,1.42910526 C9.20850966,1.44710526 9.18089093,1.46048684 9.15282673,1.46901316 C9.12487389,1.47742105 9.09369145,1.48168421 9.06017032,1.48168421 C9.00927612,1.48168421 8.96205699,1.46818421 8.91984933,1.44142105 C8.87741893,1.41453947 8.84311824,1.37439474 8.81772683,1.32193421 C8.79266951,1.27018421 8.7796397,1.20978947 8.7789715,1.14252632 L8.77874877,1.12121053 L9.31954143,1.12121053 C9.3855814,1.12121053 9.43703243,1.11138158 9.47233541,1.09196053 C9.50385195,1.07467105 9.51910907,1.03547368 9.51910907,0.972236842 C9.51910907,0.899289474 9.50117917,0.826578947 9.46587619,0.756 C9.43068457,0.685894737 9.37700622,0.62775 9.30606616,0.583223684 C9.23501474,0.538697368 9.14826073,0.516197368 9.04836554,0.516197368 Z M9.30272519,1.00255263 L8.77685555,1.00255263 L8.77908287,0.979342105 C8.78854897,0.87975 8.81639044,0.802894737 8.86182771,0.750907895 C8.90815591,0.697973684 8.96795938,0.671092105 9.039679,0.671092105 C9.11462823,0.671092105 9.17599083,0.697618421 9.22231903,0.749842105 C9.26797904,0.801355263 9.29448411,0.878802632 9.30127743,0.980052632 L9.30272519,1.00255263 Z" id="Shape"></path>
                                    </g>
                                    <path d="M0.89080335,13.5394737 C0.798500471,13.5394737 0.715174679,13.5071264 0.652910517,13.4788779 C0.0118543598,13.1783361 0.0118543598,12.4607135 0.0118543598,11.9367316 C0.0118543598,11.7689023 0.0118543598,11.5786958 0.000115090872,11.4250461 L0,11.4145222 C0,11.3879354 0.0191050848,11.3593545 0.061228344,11.3593545 L0.0772259752,11.3595761 C0.0867785176,11.3604623 0.311666082,11.382618 0.40247278,11.3977946 C0.455529672,11.4034443 0.495926568,11.4376749 0.495926568,11.4787737 C0.495926568,11.4953904 0.489136206,11.5271838 0.44344513,11.5526629 C0.413406413,11.5693904 0.395797509,11.5946479 0.394876782,11.6220102 C0.387510966,11.8461149 0.378073515,12.1968393 0.378073515,12.2621986 C0.378073515,12.744417 0.507665837,13.0168211 0.798155198,13.1453241 C0.828309006,13.1582852 0.854204453,13.164378 0.879064081,13.164378 C0.972748051,13.164378 1.06562638,13.0527133 1.18934907,12.7911655 C1.2167407,12.7332284 1.27497668,12.6971146 1.34115393,12.6971146 C1.40399355,12.6971146 1.46061826,12.7306805 1.4890457,12.7846296 L1.52748605,12.8578541 C1.55234568,12.9052673 1.55142496,12.960878 1.52506915,13.0067403 C1.31917158,13.3652192 1.11177782,13.5394737 0.89080335,13.5394737 Z M2.75032657,13.1043361 C2.72374058,13.1043361 2.69692441,13.0872762 2.69692441,13.0492792 L2.69692441,12.984917 C2.69692441,12.5383692 2.45834103,11.9927855 2.08901442,11.5947587 C2.05184007,11.5547677 2.03860462,11.4998216 2.05345134,11.4477557 C2.06864333,11.3949144 2.11007605,11.3534833 2.16439894,11.3371989 C2.22804419,11.3180342 2.28674054,11.3333216 2.32863362,11.3719833 C2.75320384,11.763585 3.09859155,12.4531806 3.09859155,12.9093661 L3.09859155,12.9698511 L2.78623492,13.0974678 C2.77299947,13.1037822 2.7625262,13.1043361 2.75032657,13.1043361 Z" id="Shape" fill-rule="nonzero"></path>
                                    <path d="M5.11612238,13.5394737 C5.02382293,13.5394737 4.94061532,13.507124 4.87823838,13.4788734 C4.23720603,13.1783092 4.23720603,12.4606331 4.23720603,11.9366122 C4.23720603,11.7687704 4.23720603,11.5785497 4.2254672,11.4248886 L4.22535211,11.4143639 C4.22535211,11.3877751 4.24445649,11.3591921 4.28657818,11.3591921 L4.30257522,11.3594137 C4.31201232,11.3603 4.53700662,11.3824573 4.62780994,11.3976351 C4.68086487,11.4032852 4.72126026,11.4375183 4.72126026,11.4786202 C4.72126026,11.4952382 4.71447015,11.5270339 4.66889586,11.5524041 C4.63885826,11.5691329 4.62113492,11.5943922 4.62021423,11.6217565 C4.61284869,11.8455456 4.6032965,12.1961854 4.6032965,12.2619927 C4.6032965,12.744247 4.73288401,13.0166714 5.02336258,13.1451839 C5.05351527,13.158146 5.07940975,13.1642393 5.10426846,13.1642393 C5.19806403,13.1642393 5.29093892,13.0523447 5.41500227,12.7901127 C5.44239288,12.732282 5.50039653,12.6963872 5.56645623,12.6963872 C5.62906334,12.6963872 5.68557086,12.7298447 5.71388216,12.7836871 L5.75289652,12.8580249 C5.77764014,12.90522 5.77683453,12.9607241 5.75059479,13.006479 C5.54458978,13.3650955 5.33708864,13.5394737 5.11612238,13.5394737 Z M6.97557653,13.1043037 C6.94899153,13.1043037 6.92229144,13.0872425 6.92229144,13.0492427 L6.92229144,12.9848756 C6.92229144,12.538073 6.68348675,11.9922271 6.31394368,11.5941706 C6.2768858,11.5542874 6.26365084,11.499448 6.27849701,11.4474891 C6.29357336,11.3947546 6.33488944,11.353542 6.38909523,11.3371456 C6.40808452,11.3313847 6.42500225,11.3289474 6.44203507,11.3289474 C6.48438693,11.3289474 6.5242069,11.3441251 6.55401433,11.371711 C6.97856878,11.7633419 7.32394366,12.4529889 7.32394366,12.9092084 L7.32394366,12.9696979 L7.01159864,13.0973241 C6.99836368,13.1037497 6.98777571,13.1043037 6.97557653,13.1043037 Z" id="Shape" fill-rule="nonzero"></path>
                                    <path d="M9.43120159,13.5394737 C9.4105465,13.5394737 9.3898914,13.5394737 9.36957126,13.5391629 C9.31419327,13.5383342 9.26283466,13.5119192 9.23213114,13.4685158 L9.21236923,13.4405469 C9.17786964,13.3917569 9.17519006,13.3319865 9.20511204,13.2806068 C9.2363738,13.2268445 9.29711095,13.1949393 9.3639888,13.1990828 C9.40005148,13.2013618 9.4309783,13.2025012 9.45844399,13.2025012 C9.6499223,13.2025012 9.72461559,13.1491533 9.72461559,13.0124169 C9.72461559,13.0085841 9.71858654,12.5769321 9.71858654,12.2048432 C9.71858654,12.1632008 9.71199924,12.1462123 9.70876141,12.1403078 C9.69938288,12.1434154 9.67638316,12.1570891 9.64177192,12.1971777 C9.35248893,12.5320784 8.890708,12.9738821 8.46219851,13.2096488 C8.40804866,13.2394822 8.33625825,13.2370997 8.28333655,13.2038479 L8.2430312,13.1785724 C8.19312402,13.1472887 8.16565833,13.0954946 8.16934275,13.0398678 C8.17313882,12.9838265 8.20775006,12.9352437 8.26201156,12.909761 C8.65803114,12.7235094 9.08553579,12.3696521 9.40563394,11.9629647 C9.41557071,11.950327 9.42640068,11.9374821 9.4373423,11.9245335 C9.45475957,11.9039195 9.48189031,11.8717035 9.49104555,11.8535756 C9.48646793,11.8529541 9.47999228,11.8524361 9.47083705,11.8524361 L8.43562601,11.8524361 C8.3427339,11.8524361 8.26725907,11.7823069 8.26725907,11.6962251 C8.26725907,11.6076572 8.34284555,11.537528 8.43562601,11.537528 L9.62480124,11.537528 C9.64847087,11.537528 9.67068905,11.5289302 9.68732477,11.5132883 C9.7039605,11.4976465 9.71289243,11.4769289 9.71255749,11.4549682 L9.7109944,11.3479616 C9.7109944,11.2976177 9.7101012,11.2559752 9.70809152,11.2164045 C9.70597018,11.1732083 9.72249426,11.1321873 9.75464922,11.1010073 C9.78669253,11.0698272 9.82990076,11.0526316 9.87634681,11.0526316 L9.8833807,11.0526316 C10.0661504,11.0596756 10.1763481,11.0639227 10.1763481,11.1420282 C10.1763481,11.1584987 10.1692026,11.189886 10.1210818,11.2155758 C10.090155,11.2321499 10.0709513,11.2588757 10.0698348,11.2871553 C10.0674902,11.3484795 10.0674902,11.3944727 10.0674902,11.3947834 L10.0687183,11.4574543 C10.0694999,11.5015829 10.108912,11.537528 10.1564746,11.537528 L10.5358584,11.537528 C10.6287505,11.537528 10.7042254,11.6076572 10.7042254,11.693739 C10.7042254,11.7823069 10.6286389,11.8524361 10.5358584,11.8524361 L10.1629502,11.8524361 C10.1393922,11.8524361 10.1172857,11.8609304 10.10065,11.8764686 C10.0840143,11.8920068 10.0749707,11.9125173 10.075194,11.934478 L10.0811114,12.750028 C10.0832327,12.8435681 10.0864705,12.9270602 10.0888152,12.9844481 C10.0903783,13.0220506 10.0913831,13.0485692 10.0913831,13.0599639 L10.0913831,13.0671115 C10.0768687,13.5030106 9.74303771,13.5394737 9.43120159,13.5394737 Z" id="Shape" fill-rule="nonzero"></path>
                                    <path d="M12.2889511,13.5394737 C12.2501312,13.5394737 12.2116394,13.5256647 12.1806929,13.5004967 L12.1289695,13.4584016 C12.0772461,13.4163065 12.0522045,13.3504911 12.0622649,13.2822257 C12.0719972,13.2157421 12.1132228,13.1618425 12.1726008,13.1378995 C12.8585644,12.8612744 13.3332604,12.3275126 13.5454029,11.5943001 C13.5550258,11.5607799 13.5489021,11.5255893 13.5284533,11.4977486 C13.5096448,11.4721351 13.4815414,11.4573239 13.4514697,11.4573239 L12.0085732,11.4660102 C11.960021,11.4660102 11.9155148,11.4464103 11.8820532,11.4108856 C11.8491383,11.3758063 11.8309859,11.3292567 11.8309859,11.2798116 L11.8309859,11.273798 C11.8309859,11.1714557 11.9099379,11.0879336 12.0069329,11.0875995 L13.7246304,11.0810291 C13.7431108,11.0810291 13.7508748,11.0760178 13.7617006,11.0691133 C13.7725265,11.0622088 13.787289,11.0526316 13.8081751,11.0526316 C13.8545403,11.0526316 14.084507,11.2441756 14.084507,11.3165614 C14.084507,11.3348248 14.0773992,11.3607724 14.0438282,11.3808177 C14.0174744,11.3965198 13.998994,11.4206855 13.9916674,11.4489717 C13.6598941,12.7334299 12.9820226,13.217858 12.3626542,13.5223238 C12.3393623,13.5337942 12.3146488,13.5394737 12.2889511,13.5394737 Z" id="Shape" fill-rule="nonzero"></path>
                                    <path d="M15.6763647,13.8157895 L15.6738544,13.8157895 C15.6285651,13.8157895 15.5851585,13.7966709 15.5548261,13.763242 C15.5278408,13.7335911 15.5129884,13.6950105 15.513093,13.6548272 L15.5152895,12.9317563 C15.5153941,12.9084019 15.5049347,12.8920309 15.4960441,12.8824143 C15.4684312,12.8520765 15.4166571,12.8448641 15.3806766,12.868562 C15.213012,12.9785796 15.040013,13.0758896 14.8802976,13.1500742 C14.8300923,13.1733142 14.7701598,13.1690783 14.7241383,13.1391984 C14.6713182,13.1048537 14.6441236,13.05036 14.6483074,12.9912871 C14.6524912,12.9319852 14.6887854,12.8802392 14.7431744,12.8564268 C15.2407295,12.6377654 15.7199805,12.2746272 15.9357585,11.9530461 C15.9793744,11.8881346 16.0672336,11.8630629 16.1376255,11.8961483 C16.1987086,11.9247689 16.2484955,11.9524737 16.2855218,11.9784612 C16.3285101,12.0044487 16.3380282,12.035359 16.3380282,12.0565382 C16.3380282,12.0909974 16.3106245,12.1256856 16.2492276,12.1256856 C16.2416968,12.1256856 16.2340614,12.1246552 16.2257985,12.123167 C16.1268523,12.2507004 16.0052091,12.3780048 15.8640068,12.5016458 C15.846958,12.5165286 15.8372307,12.5370209 15.8372307,12.5578567 L15.8372307,13.6556286 C15.8371261,13.74378 15.7649561,13.8157895 15.6763647,13.8157895 Z" id="Shape" fill-rule="nonzero"></path>
                                    <path d="M17.6808534,13.8157895 C17.6447272,13.8157895 17.6087136,13.8032724 17.5795651,13.7804935 L17.5340979,13.744972 C17.4851419,13.7067442 17.4595948,13.6456247 17.4656721,13.5814605 C17.4717494,13.5175218 17.5078755,13.4626044 17.5625712,13.4346383 C18.4092285,13.0002613 18.8007639,12.3331341 19.0216848,11.8690994 C19.0377784,11.8351567 19.0356401,11.7945607 19.0159452,11.7632116 C18.9991763,11.7365987 18.9729539,11.7213752 18.943918,11.7213752 L17.936775,11.7270135 C17.8898448,11.7270135 17.846741,11.7077304 17.8146664,11.6727728 C17.783267,11.6387173 17.766048,11.5936106 17.766048,11.5457976 C17.766048,11.4437438 17.8416766,11.3624391 17.9346367,11.3616497 L19.2857096,11.3513879 C19.2916743,11.3513879 19.2957258,11.3493581 19.3051794,11.3439453 C19.316096,11.3376304 19.3311767,11.3289474 19.3513218,11.3289474 C19.3711293,11.3289474 19.3863226,11.3386453 19.3989273,11.3477794 C19.5914876,11.4915568 19.6321154,11.5236953 19.6321154,11.5750041 C19.6321154,11.6082703 19.6100571,11.6346577 19.5663906,11.6536024 C19.5478211,11.6616089 19.5317275,11.6786366 19.521036,11.7014155 C19.4124324,11.9326998 19.277719,12.207061 19.1022653,12.4878498 C19.0746924,12.5319416 19.0836958,12.5919334 19.122748,12.6242974 C19.4044419,12.8577243 19.7309277,13.1731325 19.9545497,13.4278723 C19.9868494,13.464747 20.0032806,13.5148154 19.9994542,13.5653348 C19.9956277,13.6156287 19.9721063,13.6624269 19.9349673,13.6936632 L19.8771205,13.7422656 C19.8472967,13.7672998 19.8099326,13.7811701 19.7721183,13.7811701 C19.7202362,13.7811701 19.6719555,13.7563615 19.6397683,13.7130591 C19.4546359,13.464747 19.1893732,13.1755006 18.9119559,12.9195204 C18.8768426,12.8870437 18.8215842,12.8914416 18.7915354,12.9291056 C18.4893588,13.3084525 18.1400268,13.6009691 17.7533307,13.7986489 C17.7307097,13.8097001 17.7057252,13.8157895 17.6808534,13.8157895 Z" id="Shape" fill-rule="nonzero"></path>
                                </g>
                            </g>
                        </g>
                    </g>
                </g>
            </g>
        </g>
    </g>
</svg>