
<svg width="37px" height="53px" viewBox="0 0 37 53" version="1.1" xmlns="http://www.w3.org/2000/svg" xmlns:xlink="http://www.w3.org/1999/xlink">
    <defs>
        <path d="M18.5,0 C8.29904491,0 0,8.61064721 0,19.1945117 C0,32.3294183 16.5556877,51.6122289 17.2605608,52.4266908 C17.9226326,53.1917758 19.0785646,53.1904301 19.7394392,52.4266908 C20.4443123,51.6122289 37,32.3294183 37,19.1945117 C36.9998005,8.61064721 28.7008553,0 18.5,0 Z M18.5,28.8518066 C13.367646,28.8518066 9.19228322,24.5195689 9.19228322,19.1945117 C9.19228322,13.8694544 13.3677458,9.53732022 18.5,9.53732022 C23.6322542,9.53732022 27.807617,13.8695579 27.807617,19.1946152 C27.807617,24.5196725 23.6322542,28.8518066 18.5,28.8518066 Z" id="path-1"></path>
    </defs>
    <g stroke="none" stroke-width="1" fill="none" fill-rule="evenodd">
        <g transform="translate(-175.000000, -184.000000)">
            <g transform="translate(0.000000, 133.000000)">
                <g transform="translate(30.000000, 33.000000)">
                    <g transform="translate(145.000000, 18.000000)">
                        <g>
                            <g fill-rule="nonzero">
                                <use fill="#A5A76B" fill-rule="evenodd" xlink:href="#path-1"></use>
                                <path stroke="#D8D8D8" stroke-width="1" d="M18.5,0.5 C8.57940995,0.5 0.5,8.88273446 0.5,19.1945117 C0.5,24.836362 3.59486463,32.0979661 8.78633595,40.1600686 C10.6381551,43.0358537 12.6388012,45.8252847 14.6612231,48.4310958 C15.3888469,49.3686106 16.0745599,50.2242123 16.7023002,50.9855639 C17.1094866,51.4794178 17.4294104,51.8577374 17.6386502,52.0995084 C18.1008679,52.6336435 18.8994108,52.6333478 19.3613664,52.0994891 C19.5705896,51.8577374 19.8905134,51.4794178 20.2976998,50.9855639 C20.9254401,50.2242123 21.6111531,49.3686106 22.3387769,48.4310958 C24.3611988,45.8252847 26.3618449,43.0358537 28.213664,40.1600686 C33.4051354,32.0979661 36.5,24.836362 36.5,19.1945211 C36.4998056,8.88270208 28.4204569,0.5 18.5,0.5 Z M18.5,29.3518066 C13.0873133,29.3518066 8.69228322,24.7916899 8.69228322,19.1945117 C8.69228322,13.5973865 13.0873622,9.03732022 18.5,9.03732022 C23.9126033,9.03732022 28.307617,13.5974537 28.307617,19.1946152 C28.307617,24.7917585 23.9126205,29.3518066 18.5,29.3518066 Z"></path>
                            </g>
                            <rect fill="#A5A76B" x="5" y="6" width="24" height="27"></rect>
                            <g transform="translate(8.000000, 8.000000)" fill="#FFFFFF">
                                <g>
                                    <path d="M17.8900611,20.9878603 L2.09883398,20.9878603 C0.943920044,21.1057915 0,20.1945048 0,19.0795187 L0,18.5327467 C0,18.3719314 0.1332593,18.2325581 0.310938368,18.2325581 C0.488617435,18.2325581 0.621876735,18.3612104 0.621876735,18.5327467 L0.621876735,19.0795187 C0.621876735,19.8728742 1.28817324,20.5161354 2.10993892,20.5161354 L17.8900611,20.5161354 C18.7118268,20.5161354 19.3781233,19.8728742 19.3781233,19.0795187 L19.3781233,18.5327467 C19.3781233,18.3719314 19.5113826,18.2325581 19.6890616,18.2325581 C19.8667407,18.2325581 20,18.3612104 20,18.5327467 L20,19.0795187 C19.9888951,20.2052258 19.044975,21.1165125 17.8900611,20.9878603 Z" id="Shape" fill-rule="nonzero"></path>
                                    <path d="M19.6898026,8.62790698 C19.6120175,8.62790698 19.5453445,8.6058689 19.4897837,8.55077371 L11.1445524,1.07986575 C10.8334119,0.77133268 10.422262,0.606047106 9.98888784,0.606047106 C9.98888784,0.606047106 9.98888784,0.606047106 9.98888784,0.606047106 C9.55551364,0.606047106 9.14436376,0.77133268 8.84433547,1.07986575 L8.83322331,1.09088479 L0.510216258,8.52873563 C0.387982509,8.63892602 0.187963648,8.62790698 0.0768420585,8.50669756 C-0.034279531,8.38548813 -0.023167372,8.18714545 0.0990663764,8.07695506 L8.41096127,0.63910422 C8.83322331,0.231399804 9.39994342,0 9.98888784,0 C9.98888784,0 9.98888784,0 9.98888784,0 C10.5889444,0 11.1445524,0.231399804 11.5668144,0.650123259 L19.9009336,8.09899314 C20.0231674,8.20918352 20.0342795,8.40752621 19.9231579,8.52873563 C19.856485,8.59484986 19.7786999,8.62790698 19.6898026,8.62790698 Z" id="Shape" fill-rule="nonzero"></path>
                                    <g id="Group" transform="translate(5.619835, 15.302326)" fill-rule="nonzero">
                                        <path d="M2.6084951,0.460465116 C2.53046319,0.460465116 2.4635787,0.470930233 2.39669421,0.491860465 C2.32980973,0.512790698 2.28522007,0.544186047 2.24063041,0.586046512 C2.19604075,0.627906977 2.1625985,0.680232558 2.14030367,0.743023256 C2.11800884,0.805813953 2.10686143,0.868604651 2.10686143,0.941860465 C2.10686143,1.01511628 2.11800884,1.07790698 2.14030367,1.14069767 C2.1625985,1.20348837 2.19604075,1.25581395 2.24063041,1.29767442 C2.28522007,1.33953488 2.34095714,1.37093023 2.39669421,1.40232558 C2.4635787,1.42325581 2.53046319,1.43372093 2.6084951,1.43372093 C2.686527,1.43372093 2.75341149,1.42325581 2.82029598,1.40232558 C2.88718047,1.38139535 2.93177013,1.35 2.97635979,1.29767442 C3.02094945,1.25581395 3.0543917,1.20348837 3.07668653,1.14069767 C3.09898136,1.07790698 3.11012877,1.01511628 3.11012877,0.941860465 C3.11012877,0.868604651 3.09898136,0.805813953 3.07668653,0.743023256 C3.0543917,0.680232558 3.02094945,0.627906977 2.97635979,0.586046512 C2.93177013,0.544186047 2.87603306,0.512790698 2.80914857,0.481395349 C2.76455891,0.470930233 2.686527,0.460465116 2.6084951,0.460465116 Z M2.6084951,1.2872093 C2.55275802,1.2872093 2.49702095,1.27674419 2.4635787,1.24534884 C2.41898904,1.21395349 2.3855468,1.17209302 2.36325197,1.11976744 C2.34095714,1.06744186 2.32980973,1.00465116 2.32980973,0.941860465 C2.32980973,0.879069767 2.34095714,0.81627907 2.36325197,0.763953488 C2.3855468,0.711627907 2.41898904,0.669767442 2.4635787,0.638372093 C2.50816836,0.606976744 2.55275802,0.596511628 2.6084951,0.596511628 C2.69767442,0.596511628 2.76455891,0.627906977 2.82029598,0.690697674 C2.87603306,0.753488372 2.89832789,0.837209302 2.89832789,0.941860465 C2.89832789,1.04651163 2.87603306,1.13023256 2.82029598,1.19302326 C2.76455891,1.25581395 2.69767442,1.2872093 2.6084951,1.2872093 Z" id="Shape"></path>
                                        <path d="M3.75667884,0.481395349 C3.6563521,0.481395349 3.64520469,0.523255814 3.64520469,0.554651163 C3.64520469,0.575581395 3.6563521,0.596511628 3.66749952,0.606976744 C3.68979435,0.61744186 3.71208918,0.627906977 3.74553142,0.627906977 L3.83471074,0.627906977 L3.83471074,1.30813953 C3.83471074,1.35 3.84585816,1.38139535 3.86815299,1.4127907 C3.89044782,1.43372093 3.91274265,1.44418605 3.94618489,1.44418605 C3.97962714,1.44418605 4.00192197,1.43372093 4.0242168,1.4127907 C4.04651163,1.39186047 4.05765904,1.36046512 4.05765904,1.30813953 L4.05765904,0.627906977 L4.14683836,0.627906977 C4.19142802,0.627906977 4.22487027,0.627906977 4.2471651,0.61744186 C4.25831251,0.61744186 4.28060734,0.606976744 4.28060734,0.554651163 C4.28060734,0.53372093 4.28060734,0.491860465 4.14683836,0.491860465 L4.05765904,0.491860465 L4.05765904,0.418604651 C4.05765904,0.36627907 4.06880646,0.324418605 4.07995387,0.293023256 C4.1022487,0.261627907 4.13569095,0.240697674 4.19142802,0.240697674 C4.21372285,0.240697674 4.23601768,0.240697674 4.25831251,0.251162791 C4.29175476,0.251162791 4.30290217,0.261627907 4.31404959,0.261627907 C4.325197,0.261627907 4.34749183,0.251162791 4.35863925,0.240697674 C4.36978666,0.230232558 4.38093408,0.209302326 4.38093408,0.198837209 C4.38093408,0.136046512 4.31404959,0.115116279 4.16913319,0.115116279 C4.07995387,0.115116279 4.01306938,0.125581395 3.96847972,0.146511628 C3.92389006,0.16744186 3.89044782,0.198837209 3.86815299,0.240697674 C3.84585816,0.28255814 3.83471074,0.345348837 3.83471074,0.418604651 L3.83471074,0.512790698 L3.75667884,0.481395349 Z" id="Shape"></path>
                                        <path d="M4.9940419,0.481395349 C4.89371516,0.481395349 4.88256775,0.523255814 4.88256775,0.554651163 C4.88256775,0.575581395 4.89371516,0.596511628 4.90486258,0.606976744 C4.92715741,0.61744186 4.94945224,0.627906977 4.98289448,0.627906977 L5.0720738,0.627906977 L5.0720738,1.30813953 C5.0720738,1.35 5.08322122,1.38139535 5.10551605,1.4127907 C5.12781088,1.43372093 5.15010571,1.44418605 5.18354795,1.44418605 C5.2169902,1.44418605 5.23928503,1.43372093 5.26157986,1.4127907 C5.28387469,1.39186047 5.2950221,1.36046512 5.2950221,1.30813953 L5.2950221,0.627906977 L5.38420142,0.627906977 C5.42879108,0.627906977 5.46223333,0.627906977 5.48452816,0.61744186 C5.49567557,0.61744186 5.5179704,0.606976744 5.5179704,0.554651163 C5.5179704,0.53372093 5.5179704,0.491860465 5.38420142,0.491860465 L5.2950221,0.491860465 L5.2950221,0.418604651 C5.2950221,0.36627907 5.30616952,0.324418605 5.31731693,0.293023256 C5.33961176,0.261627907 5.37305401,0.240697674 5.42879108,0.240697674 C5.45108591,0.240697674 5.47338074,0.240697674 5.49567557,0.251162791 C5.52911782,0.251162791 5.54026523,0.261627907 5.55141265,0.261627907 C5.56256006,0.261627907 5.58485489,0.251162791 5.59600231,0.240697674 C5.60714972,0.230232558 5.61829714,0.209302326 5.61829714,0.198837209 C5.61829714,0.136046512 5.55141265,0.115116279 5.40649625,0.115116279 C5.31731693,0.115116279 5.25043244,0.125581395 5.20584278,0.146511628 C5.16125312,0.16744186 5.12781088,0.198837209 5.10551605,0.240697674 C5.08322122,0.28255814 5.0720738,0.345348837 5.0720738,0.418604651 L5.0720738,0.512790698 L4.9940419,0.481395349 Z" id="Shape"></path>
                                        <path d="M7.55794734,0.460465116 C7.44647319,0.460465116 7.35729387,0.481395349 7.27926196,0.523255814 C7.20123006,0.565116279 7.14549298,0.627906977 7.10090333,0.701162791 C7.05631367,0.774418605 7.03401884,0.868604651 7.03401884,0.962790698 C7.03401884,1.10930233 7.0786085,1.2244186 7.16778781,1.30813953 C7.25696713,1.39186047 7.3795887,1.43372093 7.53565251,1.43372093 C7.61368441,1.43372093 7.6805689,1.42325581 7.73630598,1.40232558 C7.79204305,1.38139535 7.84778013,1.36046512 7.88122237,1.32906977 C7.91466462,1.29767442 7.94810686,1.26627907 7.97040169,1.23488372 C7.99269652,1.20348837 7.99269652,1.17209302 7.99269652,1.14069767 C7.99269652,1.11976744 7.98154911,1.09883721 7.97040169,1.07790698 C7.94810686,1.05697674 7.92581203,1.04651163 7.9035172,1.04651163 C7.88122237,1.04651163 7.85892754,1.05697674 7.84778013,1.06744186 C7.8254853,1.07790698 7.81433788,1.09883721 7.80319047,1.13023256 C7.76974822,1.18255814 7.73630598,1.21395349 7.69171632,1.24534884 C7.64712666,1.26627907 7.602537,1.2872093 7.54679992,1.2872093 C7.50221026,1.2872093 7.46876802,1.27674419 7.42417836,1.26627907 C7.39073611,1.25581395 7.35729387,1.2244186 7.33499904,1.19302326 C7.31270421,1.16162791 7.29040938,1.13023256 7.27926196,1.08837209 C7.26811455,1.04651163 7.25696713,1.00465116 7.25696713,0.952325581 C7.25696713,0.847674419 7.27926196,0.763953488 7.33499904,0.701162791 C7.39073611,0.638372093 7.4576206,0.606976744 7.53565251,0.606976744 C7.59138958,0.606976744 7.64712666,0.61744186 7.6805689,0.648837209 C7.71401115,0.669767442 7.75860081,0.711627907 7.79204305,0.753488372 C7.80319047,0.774418605 7.8254853,0.795348837 7.83663271,0.805813953 C7.84778013,0.81627907 7.85892754,0.81627907 7.88122237,0.81627907 C7.91466462,0.81627907 7.93695945,0.805813953 7.95925428,0.795348837 C7.98154911,0.774418605 7.99269652,0.753488372 7.99269652,0.73255814 C7.99269652,0.711627907 7.98154911,0.680232558 7.95925428,0.648837209 C7.93695945,0.61744186 7.91466462,0.586046512 7.87007496,0.554651163 C7.83663271,0.523255814 7.78089564,0.502325581 7.72515856,0.481395349 C7.6805689,0.460465116 7.62483183,0.460465116 7.55794734,0.460465116 Z" id="Shape"></path>
                                        <path d="M9.05170094,0.460465116 C8.97366904,0.460465116 8.90678455,0.470930233 8.83990006,0.491860465 C8.77301557,0.512790698 8.72842591,0.544186047 8.68383625,0.586046512 C8.63924659,0.627906977 8.60580434,0.680232558 8.58350951,0.743023256 C8.56121468,0.805813953 8.55006727,0.868604651 8.55006727,0.941860465 C8.55006727,1.08837209 8.59465693,1.21395349 8.68383625,1.29767442 C8.77301557,1.38139535 8.90678455,1.43372093 9.07399577,1.43372093 C9.14088026,1.43372093 9.20776475,1.42325581 9.26350183,1.40232558 C9.3192389,1.38139535 9.36382856,1.36046512 9.39727081,1.33953488 C9.43071305,1.30813953 9.4641553,1.2872093 9.47530271,1.25581395 C9.49759754,1.2244186 9.49759754,1.20348837 9.49759754,1.18255814 C9.49759754,1.16162791 9.48645012,1.15116279 9.47530271,1.14069767 C9.4641553,1.13023256 9.44186047,1.11976744 9.41956564,1.11976744 C9.39727081,1.11976744 9.38612339,1.11976744 9.37497598,1.13023256 C9.34153373,1.16162791 9.3192389,1.18255814 9.29694407,1.20348837 C9.27464924,1.2244186 9.25235441,1.23488372 9.23005958,1.25581395 C9.20776475,1.27674419 9.17432251,1.2872093 9.15202768,1.2872093 C9.11858543,1.29767442 9.0962906,1.29767442 9.06284836,1.29767442 C9.00711128,1.29767442 8.96252162,1.2872093 8.91793196,1.26627907 C8.8733423,1.24534884 8.83990006,1.20348837 8.81760523,1.16162791 C8.7953104,1.11976744 8.78416298,1.06744186 8.78416298,1.00465116 L8.78416298,0.98372093 L9.33038632,0.98372093 C9.39727081,0.98372093 9.45300788,0.973255814 9.48645012,0.962790698 C9.51989237,0.952325581 9.53103978,0.910465116 9.53103978,0.858139535 C9.53103978,0.795348837 9.50874495,0.73255814 9.47530271,0.669767442 C9.44186047,0.606976744 9.38612339,0.554651163 9.3192389,0.512790698 C9.241207,0.470930233 9.15202768,0.460465116 9.05170094,0.460465116 Z M9.30809149,0.889534884 L8.78416298,0.889534884 L8.78416298,0.868604651 C8.7953104,0.784883721 8.81760523,0.711627907 8.86219489,0.669767442 C8.90678455,0.627906977 8.97366904,0.596511628 9.04055353,0.596511628 C9.11858543,0.596511628 9.17432251,0.61744186 9.21891217,0.669767442 C9.26350183,0.711627907 9.28579666,0.784883721 9.29694407,0.868604651 L9.30809149,0.889534884 Z" id="Shape"></path>
                                    </g>
                                    <path d="M1.02479339,13.5116279 C0.936639118,13.5116279 0.859504132,13.4796929 0.79338843,13.4584029 C0.17630854,13.170988 0.17630854,12.4790633 0.17630854,11.9787485 C0.17630854,11.8190736 0.17630854,11.6381086 0.165289256,11.4890787 L0.165289256,11.4784337 C0.165289256,11.4571437 0.187327824,11.4252087 0.220385675,11.4252087 L0.231404959,11.4252087 C0.242424242,11.4252087 0.451790634,11.4464987 0.539944904,11.4571437 C0.595041322,11.4677887 0.628099174,11.4997237 0.628099174,11.5316587 C0.628099174,11.5529487 0.61707989,11.5742386 0.573002755,11.6061736 C0.539944904,11.6274636 0.52892562,11.6487536 0.52892562,11.6700436 C0.517906336,11.8829435 0.517906336,12.2235834 0.517906336,12.2874534 C0.517906336,12.7558332 0.639118457,13.0113131 0.914600551,13.139053 C0.947658402,13.149698 0.96969697,13.160343 0.991735537,13.160343 C1.07988981,13.160343 1.16804408,13.0538931 1.2892562,12.7984132 C1.31129477,12.7451882 1.36639118,12.7132532 1.43250689,12.7132532 C1.48760331,12.7132532 1.54269972,12.7451882 1.57575758,12.7984132 L1.60881543,12.8729282 C1.63085399,12.9155081 1.63085399,12.9687331 1.60881543,13.0113131 C1.43250689,13.341308 1.23415978,13.5116279 1.02479339,13.5116279 Z M2.80991736,13.0964731 C2.78787879,13.0964731 2.75482094,13.0751831 2.75482094,13.0432481 L2.75482094,12.9793781 C2.75482094,12.5535783 2.52341598,12.0213285 2.1707989,11.6487536 C2.13774105,11.6061736 2.12672176,11.5529487 2.13774105,11.5103687 C2.14876033,11.4571437 2.19283747,11.4145637 2.24793388,11.4039187 C2.31404959,11.3826287 2.36914601,11.4039187 2.40220386,11.4358537 C2.80991736,11.8084286 3.14049587,12.4790633 3.14049587,12.9155081 L3.14049587,12.9687331 L2.84297521,13.0964731 C2.83195592,13.0964731 2.82093664,13.0964731 2.80991736,13.0964731 Z" id="Shape" fill-rule="nonzero"></path>
                                    <path d="M5.15702479,13.5116279 C5.06887052,13.5116279 4.99173554,13.4798837 4.92561983,13.4587209 C4.30853994,13.1730233 4.30853994,12.4852326 4.30853994,11.987907 C4.30853994,11.829186 4.30853994,11.6493023 4.29752066,11.5011628 L4.29752066,11.4905814 C4.29752066,11.4694186 4.31955923,11.4376744 4.35261708,11.4376744 L4.36363636,11.4376744 C4.37465565,11.4376744 4.58402204,11.4588372 4.67217631,11.4694186 C4.72727273,11.48 4.76033058,11.5117442 4.76033058,11.5434884 C4.76033058,11.5646512 4.74931129,11.585814 4.70523416,11.6175581 C4.67217631,11.6387209 4.66115702,11.6598837 4.66115702,11.6810465 C4.65013774,11.8926744 4.65013774,12.2312791 4.65013774,12.2947674 C4.65013774,12.7603488 4.77134986,13.0143023 5.05785124,13.1412791 C5.09090909,13.1518605 5.11294766,13.1624419 5.13498623,13.1624419 C5.2231405,13.1624419 5.31129477,13.0566279 5.43250689,12.8026744 C5.45454545,12.7497674 5.50964187,12.7180233 5.57575758,12.7180233 C5.63085399,12.7180233 5.68595041,12.7497674 5.71900826,12.8026744 L5.75206612,12.8767442 C5.77410468,12.9190698 5.77410468,12.9719767 5.75206612,13.0143023 C5.56473829,13.3423256 5.36639118,13.5116279 5.15702479,13.5116279 Z M6.93112948,13.0989535 C6.90909091,13.0989535 6.87603306,13.0777907 6.87603306,13.0460465 L6.87603306,12.9825581 C6.87603306,12.5593023 6.6446281,12.0302326 6.29201102,11.6493023 C6.25895317,11.6069767 6.24793388,11.5540698 6.25895317,11.5117442 C6.26997245,11.4588372 6.31404959,11.427093 6.36914601,11.4059302 C6.39118457,11.3953488 6.40220386,11.3953488 6.42424242,11.3953488 C6.46831956,11.3953488 6.50137741,11.4059302 6.53443526,11.4376744 C6.94214876,11.8080233 7.27272727,12.4746512 7.27272727,12.9084884 L7.27272727,12.9613953 L6.97520661,13.0883721 C6.95316804,13.0989535 6.94214876,13.0989535 6.93112948,13.0989535 Z" id="Shape" fill-rule="nonzero"></path>
                                    <path d="M9.59827524,13.6744186 C9.57527848,13.6744186 9.55228171,13.6744186 9.52928494,13.6744186 C9.47179303,13.6744186 9.41430111,13.6418605 9.39130435,13.5984496 L9.36830758,13.5658915 C9.33381243,13.5116279 9.33381243,13.4573643 9.3568092,13.4031008 C9.39130435,13.3488372 9.44879626,13.3162791 9.51778656,13.3162791 C9.55228171,13.3162791 9.58677686,13.3162791 9.60977363,13.3162791 C9.80524614,13.3162791 9.88573482,13.2620155 9.88573482,13.1209302 C9.88573482,13.1209302 9.87423644,12.6651163 9.87423644,12.2744186 C9.87423644,12.2310078 9.86273805,12.2093023 9.86273805,12.2093023 C9.85123967,12.2093023 9.8282429,12.2310078 9.79374775,12.2635659 C9.4947898,12.6108527 9.02335609,13.0775194 8.57491915,13.3271318 C8.51742724,13.3596899 8.44843694,13.3596899 8.39094502,13.3162791 L8.34495149,13.2945736 C8.29895796,13.2620155 8.26446281,13.2077519 8.26446281,13.1534884 C8.26446281,13.0992248 8.29895796,13.0449612 8.35644987,13.0124031 C8.75889328,12.8170543 9.20733022,12.448062 9.52928494,12.0248062 C9.54078333,12.0139535 9.55228171,12.0031008 9.56378009,11.9813953 C9.58677686,11.9596899 9.60977363,11.9271318 9.62127201,11.9054264 C9.62127201,11.9054264 9.60977363,11.9054264 9.59827524,11.9054264 L8.52892562,11.9054264 C8.43693856,11.9054264 8.35644987,11.8294574 8.35644987,11.7426357 C8.35644987,11.6449612 8.43693856,11.579845 8.52892562,11.579845 L9.79374775,11.579845 C9.81674452,11.579845 9.83974129,11.5689922 9.86273805,11.5581395 C9.87423644,11.5364341 9.88573482,11.5147287 9.88573482,11.4930233 L9.88573482,11.3844961 C9.88573482,11.3302326 9.88573482,11.2868217 9.88573482,11.2434109 C9.88573482,11.2 9.8972332,11.1565891 9.93172835,11.124031 C9.9662235,11.0914729 10.012217,11.0697674 10.0582106,11.0697674 L10.0697089,11.0697674 C10.2536831,11.0806202 10.3686669,11.0806202 10.3686669,11.1674419 C10.3686669,11.1891473 10.3571685,11.2217054 10.311175,11.2434109 C10.2766798,11.2651163 10.2651815,11.2868217 10.2536831,11.3193798 C10.2536831,11.3844961 10.2536831,11.427907 10.2536831,11.427907 L10.2536831,11.4930233 C10.2536831,11.5364341 10.2996766,11.579845 10.3456701,11.579845 L10.7366152,11.579845 C10.8286022,11.579845 10.9090909,11.655814 10.9090909,11.7426357 C10.9090909,11.8403101 10.8286022,11.9054264 10.7366152,11.9054264 L10.3571685,11.9054264 C10.3341718,11.9054264 10.311175,11.9162791 10.2881782,11.9271318 C10.2651815,11.9379845 10.2651815,11.9596899 10.2651815,11.9922481 L10.2766798,12.8496124 C10.2766798,12.9472868 10.2766798,13.0341085 10.2881782,13.0992248 C10.2881782,13.1426357 10.2881782,13.1643411 10.2881782,13.1751938 L10.2881782,13.1860465 C10.2651815,13.6418605 9.92022997,13.6744186 9.59827524,13.6744186 Z" id="Shape" fill-rule="nonzero"></path>
                                    <path d="M12.3862125,13.6744186 C12.3410603,13.6744186 12.3071961,13.6635659 12.273332,13.6418605 L12.2168918,13.5984496 C12.1604515,13.5550388 12.1378754,13.4899225 12.1491635,13.4248062 C12.1604515,13.3596899 12.2056037,13.3054264 12.2620439,13.2837209 C12.9731909,13.0124031 13.4585769,12.4914729 13.6843378,11.7751938 C13.6956259,11.7426357 13.6843378,11.7100775 13.6617617,11.6775194 C13.6391856,11.655814 13.6166096,11.6341085 13.5827454,11.6341085 L12.0927232,11.6449612 C12.0475711,11.6449612 11.9911308,11.6232558 11.9572667,11.5906977 C11.9234025,11.5581395 11.9008264,11.5147287 11.9008264,11.4604651 L11.9008264,11.4496124 C11.9008264,11.351938 11.9798428,11.2651163 12.0814352,11.2651163 L13.8536585,11.2542636 C13.8762346,11.2542636 13.8762346,11.2542636 13.8875227,11.2434109 C13.8988107,11.2325581 13.9100988,11.2325581 13.9326749,11.2325581 C13.9778271,11.2325581 14.214876,11.4170543 14.214876,11.4930233 C14.214876,11.5147287 14.203588,11.5364341 14.1697238,11.5581395 C14.1471478,11.5689922 14.1245717,11.6015504 14.1132836,11.6232558 C13.7746422,12.8713178 13.0747833,13.3488372 12.4313646,13.6418605 C12.4426527,13.6635659 12.4200766,13.6744186 12.3862125,13.6744186 Z" id="Shape" fill-rule="nonzero"></path>
                                    <path d="M15.9948777,13.6744186 C15.9384796,13.6744186 15.8933611,13.6531487 15.8595222,13.6212438 C15.8256833,13.5893389 15.8144036,13.557434 15.8144036,13.5255291 L15.8144036,12.8555261 C15.8144036,12.8342562 15.803124,12.8236212 15.7918444,12.8129862 C15.7580055,12.7810813 15.7016073,12.7810813 15.6677684,12.8023513 C15.4872943,12.9087009 15.2955406,12.9937807 15.1263461,13.0682255 C15.069948,13.0894954 15.0022702,13.0894954 14.9571517,13.0575905 C14.9007535,13.0256856 14.8669146,12.9725108 14.8781943,12.9193359 C14.8781943,12.8661611 14.9233128,12.8129862 14.9797109,12.7917163 C15.5211332,12.5896519 16.0287166,12.249333 16.2655889,11.9515539 C16.3107074,11.8877441 16.4122241,11.8664741 16.4799019,11.898379 C16.5475797,11.919649 16.6039778,11.9515539 16.6378167,11.9728238 C16.6829352,11.9940937 16.6942149,12.0259986 16.6942149,12.0472686 C16.6942149,12.0791735 16.660376,12.1110784 16.6039778,12.1110784 C16.5926982,12.1110784 16.5926982,12.1110784 16.5814186,12.1110784 C16.4799019,12.228063 16.3445463,12.3450477 16.1866315,12.4620323 C16.1640722,12.4726673 16.1527926,12.4939372 16.1527926,12.5152071 L16.1527926,13.536164 C16.1753518,13.5999738 16.0963944,13.6744186 15.9948777,13.6744186 Z" id="Shape" fill-rule="nonzero"></path>
                                    <path d="M17.730121,13.6744186 C17.6973823,13.6744186 17.6646437,13.6632686 17.631905,13.6409685 L17.5882535,13.6075183 C17.544602,13.5740682 17.5118634,13.5071679 17.5227762,13.4514176 C17.5336891,13.3845174 17.5664278,13.3287671 17.6209922,13.306467 C18.4394582,12.8716152 18.821409,12.2137623 19.0396666,11.7566104 C19.0505794,11.7231602 19.0505794,11.6785601 19.0287537,11.65626 C19.0178408,11.6339599 18.9851022,11.6116598 18.9632764,11.6116598 L17.9920301,11.6228098 C17.9483786,11.6228098 17.904727,11.6005097 17.8719884,11.5670596 C17.8392498,11.5336094 17.8283369,11.4890092 17.8283369,11.444409 C17.8283369,11.3440586 17.904727,11.2660083 17.9920301,11.2660083 L19.3015757,11.2548582 C19.3124886,11.2548582 19.3124886,11.2548582 19.3234014,11.2437082 C19.3343143,11.2325581 19.3452272,11.2325581 19.367053,11.2325581 C19.3888787,11.2325581 19.3997916,11.2437082 19.4107045,11.2548582 C19.5962234,11.3998089 19.639875,11.433259 19.639875,11.4778592 C19.639875,11.5113093 19.6180492,11.5336094 19.5743977,11.5559095 C19.5525719,11.5670596 19.541659,11.5782096 19.5307462,11.6005097 C19.4216174,11.8346607 19.2906628,12.1022619 19.1269696,12.3810131 C19.1051438,12.4256133 19.1051438,12.4813635 19.1487954,12.5148136 C19.4216174,12.7489646 19.7380909,13.061166 19.9563485,13.306467 C19.9890871,13.3399172 20,13.3956674 20,13.4402676 C20,13.4848678 19.9781742,13.540618 19.9345227,13.5629181 L19.8799583,13.6075183 C19.8472197,13.6298184 19.814481,13.6409685 19.7817424,13.6409685 C19.727178,13.6409685 19.6835265,13.6186684 19.6507878,13.5740682 C19.4761818,13.3287671 19.2142726,13.0388659 18.9414506,12.7935648 C18.908712,12.7601147 18.8541476,12.7712647 18.821409,12.8047149 C18.5267612,13.1838165 18.1884619,13.4737177 17.817424,13.6632686 C17.7737725,13.6632686 17.7519467,13.6744186 17.730121,13.6744186 Z" id="Shape" fill-rule="nonzero"></path>
                                </g>
                            </g>
                        </g>
                    </g>
                </g>
            </g>
        </g>
    </g>
</svg>